<svg data-v-423bf9ae="" xmlns="http://www.w3.org/2000/svg" viewBox="0 0 250.11237730930063 163" class="iconAbove"><!----><!----><!----><g data-v-423bf9ae="" id="a64c4c68-8c4a-406b-bbc7-1b08d838d288" fill="white" transform="matrix(5.617977869218204,0,0,5.617977869218204,-5.505621828124646,87.26966247249368)"><path d="M2.04 5.01C1.92 4.89 1.78 4.83 1.60 4.83C1.43 4.83 1.28 4.89 1.16 5.01C1.04 5.13 0.98 5.28 0.98 5.45C0.98 5.63 1.04 5.77 1.16 5.89C1.28 6.02 1.43 6.08 1.60 6.08C1.78 6.08 1.92 6.02 2.04 5.89C2.17 5.77 2.23 5.63 2.23 5.45C2.23 5.28 2.17 5.13 2.04 5.01ZM2.10 13.30L2.10 7.14L1.12 7.14L1.12 13.30ZM9.16 10.22C9.16 10.82 8.95 11.34 8.53 11.79C8.12 12.24 7.60 12.46 6.99 12.46C6.37 12.46 5.86 12.24 5.44 11.79C5.02 11.34 4.82 10.82 4.82 10.22C4.82 9.62 5.02 9.10 5.44 8.65C5.86 8.20 6.37 7.98 6.99 7.98C7.60 7.98 8.12 8.20 8.53 8.65C8.95 9.10 9.16 9.62 9.16 10.22ZM10.14 13.30L10.14 2.80L9.16 2.80L9.16 8.19C9.10 8.12 9.04 8.05 8.98 7.98C8.40 7.33 7.68 7.00 6.83 7.00C5.98 7.00 5.26 7.33 4.68 7.98C4.12 8.61 3.84 9.36 3.84 10.22C3.84 11.08 4.12 11.83 4.68 12.46C5.26 13.11 5.98 13.44 6.83 13.44C7.68 13.44 8.40 13.11 8.98 12.46C9.04 12.39 9.10 12.32 9.16 12.25L9.16 13.30ZM13.13 12.42C12.88 12.26 12.70 11.98 12.60 11.58L11.56 11.58C11.78 12.85 12.60 13.48 14.03 13.48C14.36 13.48 14.67 13.44 14.96 13.36C15.25 13.28 15.51 13.17 15.75 13.01C16.22 12.69 16.46 12.20 16.46 11.54C16.46 10.88 16.14 10.39 15.51 10.09C15.24 9.96 14.94 9.86 14.63 9.79C14.32 9.72 14.02 9.64 13.75 9.56C13.48 9.47 13.25 9.37 13.07 9.24C12.89 9.11 12.79 8.91 12.79 8.63C12.79 8.35 12.91 8.15 13.13 8.01C13.35 7.88 13.61 7.81 13.92 7.81C14.22 7.81 14.48 7.87 14.69 7.98C14.91 8.09 15.07 8.32 15.17 8.67L16.22 8.67C16.09 8.04 15.83 7.61 15.43 7.37C15.03 7.12 14.54 7.00 13.94 7.00C13.35 7.00 12.83 7.16 12.40 7.47C11.97 7.79 11.76 8.25 11.76 8.86C11.76 9.17 11.84 9.43 11.99 9.66C12.15 9.88 12.39 10.07 12.71 10.22C12.98 10.34 13.28 10.44 13.59 10.52C13.90 10.59 14.19 10.68 14.46 10.76C15.10 10.97 15.43 11.27 15.43 11.66C15.43 12.33 14.98 12.67 14.08 12.67C13.69 12.67 13.38 12.59 13.13 12.42ZM23.62 9.35C23.42 8.66 23.05 8.10 22.50 7.67C21.94 7.23 21.30 7.01 20.59 7.01C19.71 7.01 18.97 7.33 18.35 7.97C17.75 8.59 17.44 9.34 17.44 10.22C17.44 11.09 17.75 11.84 18.35 12.48C18.63 12.78 18.97 13.01 19.35 13.18C19.73 13.35 20.12 13.44 20.51 13.44C20.90 13.44 21.25 13.39 21.56 13.28C22.55 12.94 23.21 12.27 23.56 11.28L22.46 11.28C22.27 11.63 22.01 11.90 21.68 12.11C21.35 12.32 20.99 12.42 20.59 12.42C20.00 12.42 19.49 12.20 19.07 11.77C18.66 11.33 18.45 10.82 18.45 10.22C18.45 9.63 18.66 9.12 19.07 8.69C19.27 8.49 19.49 8.33 19.75 8.21C20.02 8.09 20.33 8.04 20.69 8.04C21.06 8.04 21.42 8.16 21.77 8.40C22.12 8.64 22.39 8.96 22.55 9.35ZM30.06 10.22C30.06 10.82 29.85 11.34 29.44 11.79C29.02 12.24 28.50 12.46 27.89 12.46C27.27 12.46 26.76 12.24 26.34 11.79C25.93 11.34 25.72 10.82 25.72 10.22C25.72 9.62 25.93 9.10 26.34 8.65C26.76 8.20 27.27 7.98 27.89 7.98C28.50 7.98 29.02 8.20 29.44 8.65C29.85 9.10 30.06 9.62 30.06 10.22ZM31.04 13.30L31.04 7.14L30.06 7.14L30.06 8.19C30.00 8.12 29.94 8.05 29.88 7.98C29.30 7.33 28.58 7.00 27.73 7.00C26.88 7.00 26.17 7.33 25.59 7.98C25.02 8.61 24.74 9.36 24.74 10.22C24.74 11.08 25.02 11.83 25.59 12.46C26.17 13.11 26.88 13.44 27.73 13.44C28.58 13.44 29.30 13.11 29.88 12.46C29.94 12.39 30.00 12.32 30.06 12.25L30.06 13.30ZM37.39 13.30L38.37 13.30L38.37 9.45C38.37 8.74 38.19 8.16 37.81 7.72C37.63 7.50 37.40 7.33 37.13 7.20C36.86 7.08 36.50 7.01 36.06 7.01C35.63 7.01 35.24 7.13 34.90 7.36C34.58 7.57 34.32 7.85 34.12 8.20L34.12 7.14L33.14 7.14L33.14 13.30L34.12 13.30L34.12 10.72C34.12 9.94 34.27 9.32 34.56 8.86C34.72 8.60 34.93 8.39 35.20 8.23C35.46 8.07 35.80 7.99 36.22 7.99C36.64 7.99 36.94 8.14 37.12 8.42C37.30 8.71 37.39 9.05 37.39 9.45ZM44.52 13.30L45.50 13.30L45.50 9.45C45.50 8.74 45.31 8.16 44.94 7.72C44.75 7.50 44.52 7.33 44.25 7.20C43.98 7.08 43.63 7.01 43.19 7.01C42.75 7.01 42.36 7.13 42.03 7.36C41.71 7.57 41.45 7.85 41.24 8.20L41.24 7.14L40.26 7.14L40.26 13.30L41.24 13.30L41.24 10.72C41.24 9.94 41.39 9.32 41.69 8.86C41.85 8.60 42.06 8.39 42.32 8.23C42.58 8.07 42.92 7.99 43.34 7.99C43.76 7.99 44.06 8.14 44.25 8.42C44.43 8.71 44.52 9.05 44.52 9.45Z"></path></g><!----><g data-v-423bf9ae="" id="5fa38fad-02e7-4250-a43f-f4c02230e0ee" transform="matrix(2.8125,0,0,2.8125,81,0)" stroke="none" fill="white"><g data-name="16-scan"><path d="M31 17H1a1 1 0 0 1 0-2h30a1 1 0 0 1 0 2zM1 12a1 1 0 0 1-1-1V1a1 1 0 0 1 1-1h10a1 1 0 0 1 0 2H2v9a1 1 0 0 1-1 1zM31 12a1 1 0 0 1-1-1V2h-9a1 1 0 0 1 0-2h10a1 1 0 0 1 1 1v10a1 1 0 0 1-1 1zM31 32H21a1 1 0 0 1 0-2h9v-9a1 1 0 0 1 2 0v10a1 1 0 0 1-1 1zM11 32H1a1 1 0 0 1-1-1V21a1 1 0 0 1 2 0v9h9a1 1 0 0 1 0 2z"></path></g></g><!----></svg>