<svg data-v-fde0c5aa="" xmlns="http://www.w3.org/2000/svg" viewBox="0 0 300 300" class="icon"><!----><defs data-v-fde0c5aa=""><!----></defs><rect data-v-fde0c5aa="" fill="#FFFFFF" x="0" y="0" width="300px" height="300px" class="logo-background-square"></rect><!----><defs data-v-fde0c5aa=""><linearGradient data-v-fde0c5aa="" gradientTransform="rotate(25)" id="37e12fce-2ea7-4a2b-a2db-fec0d4976ae6" x1="0%" y1="0%" x2="100%" y2="0%"><stop data-v-fde0c5aa="" offset="0%" stop-color="#1A35EA" stop-opacity="1"></stop><stop data-v-fde0c5aa="" offset="100%" stop-color="#E41748" stop-opacity="1"></stop></linearGradient></defs><g data-v-fde0c5aa="" id="0b22a9ac-0adf-4329-828e-5dca35e50add" fill="url(#37e12fce-2ea7-4a2b-a2db-fec0d4976ae6)" stroke="none" transform="matrix(6.875,0,0,6.875,40,40)"><g data-name="16-scan"><path d="M31 17H1a1 1 0 0 1 0-2h30a1 1 0 0 1 0 2zM1 12a1 1 0 0 1-1-1V1a1 1 0 0 1 1-1h10a1 1 0 0 1 0 2H2v9a1 1 0 0 1-1 1zM31 12a1 1 0 0 1-1-1V2h-9a1 1 0 0 1 0-2h10a1 1 0 0 1 1 1v10a1 1 0 0 1-1 1zM31 32H21a1 1 0 0 1 0-2h9v-9a1 1 0 0 1 2 0v10a1 1 0 0 1-1 1zM11 32H1a1 1 0 0 1-1-1V21a1 1 0 0 1 2 0v9h9a1 1 0 0 1 0 2z"></path></g></g><!----></svg>