<svg data-v-fde0c5aa="" xmlns="http://www.w3.org/2000/svg" viewBox="0 0 300 300" class="iconLeft"><!----><defs data-v-fde0c5aa=""><!----></defs><rect data-v-fde0c5aa="" fill="#FFFFFF" x="0" y="0" width="300px" height="300px" class="logo-background-square"></rect><defs data-v-fde0c5aa=""><!----></defs><g data-v-fde0c5aa="" id="a542d9f1-d967-4505-b60c-7c0bcc08c161" fill="#1A35EA" transform="matrix(3.1002428450287334,0,0,3.1002428450287334,96.46218659853457,123.33791108925959)"><path d="M2.49 5.17C2.84 5.17 3.02 4.98 3.02 4.62L3.02 3.68C3.02 3.32 2.84 3.14 2.49 3.14L1.18 3.14C0.80 3.14 0.62 3.32 0.62 3.68L0.62 4.62C0.62 4.98 0.78 5.17 1.12 5.17ZM3.04 14.06L3.04 5.84L0.62 5.84L0.62 14.06ZM11.66 14.06L11.66 3.42L9.24 3.42L9.24 5.84L6.13 5.84C4.86 5.84 4.21 6.48 4.21 7.77L4.21 12.19C4.21 13.44 4.87 14.06 6.17 14.06ZM9.24 11.63L7.06 11.63C6.78 11.63 6.64 11.48 6.64 11.19L6.64 8.69C6.64 8.41 6.78 8.27 7.06 8.27L9.24 8.27ZM18.51 14.06C19.67 14.06 20.24 13.41 20.24 12.12L20.24 10.85C20.24 9.67 19.67 9.09 18.51 9.09L15.43 9.09C15.27 9.09 15.19 9.02 15.19 8.86L15.19 8.37C15.19 8.20 15.27 8.12 15.43 8.12L20.02 8.12L20.02 5.84L14.73 5.84C13.45 5.84 12.82 6.48 12.82 7.76L12.82 9.00C12.82 10.23 13.22 10.79 14.49 10.79L17.56 10.79C17.71 10.79 17.79 10.86 17.79 11.02L17.79 11.51C17.79 11.68 17.71 11.76 17.56 11.76L12.92 11.76L12.92 14.06ZM27.41 14.06L27.41 11.63L24.19 11.63C23.91 11.63 23.77 11.48 23.77 11.19L23.77 8.69C23.77 8.41 23.91 8.27 24.19 8.27L27.38 8.27L27.38 5.84L23.27 5.84C21.99 5.84 21.35 6.48 21.35 7.77L21.35 12.19C21.35 13.44 22.01 14.06 23.31 14.06ZM33.26 11.52C33.26 11.70 33.17 11.80 32.98 11.80L30.94 11.80C30.76 11.80 30.66 11.70 30.66 11.52L30.66 10.95C30.66 10.77 30.76 10.67 30.94 10.67L32.98 10.67C33.17 10.67 33.26 10.77 33.26 10.95ZM33.80 14.06C35.06 14.06 35.69 13.41 35.69 12.12L35.69 7.77C35.69 6.48 35.03 5.84 33.73 5.84L28.57 5.84L28.57 8.13L32.84 8.13C33.12 8.13 33.26 8.27 33.26 8.55L33.26 9.17C33.14 9.11 32.98 9.07 32.80 9.07L30.04 9.07C28.85 9.07 28.25 9.70 28.25 10.98L28.25 12.19C28.25 13.44 28.85 14.06 30.04 14.06ZM44.20 14.06L44.20 7.78C44.20 6.48 43.57 5.84 42.29 5.84L38.75 5.84C37.48 5.84 36.83 6.48 36.83 7.77L36.83 14.06L39.26 14.06L39.26 8.69C39.26 8.41 39.40 8.27 39.68 8.27L41.38 8.27C41.66 8.27 41.80 8.41 41.80 8.69L41.80 14.06ZM52.75 14.06L52.75 7.78C52.75 6.48 52.12 5.84 50.85 5.84L47.31 5.84C46.03 5.84 45.39 6.48 45.39 7.77L45.39 14.06L47.81 14.06L47.81 8.69C47.81 8.41 47.95 8.27 48.23 8.27L49.94 8.27C50.22 8.27 50.36 8.41 50.36 8.69L50.36 14.06Z"></path></g><defs data-v-fde0c5aa=""><linearGradient data-v-fde0c5aa="" gradientTransform="rotate(25)" id="37b6a0a8-82f0-4c4a-9d14-888fe43fed8d" x1="0%" y1="0%" x2="100%" y2="0%"><stop data-v-fde0c5aa="" offset="0%" stop-color="#E41748" stop-opacity="1"></stop><stop data-v-fde0c5aa="" offset="100%" stop-color="#1A35EA" stop-opacity="1"></stop></linearGradient></defs><g data-v-fde0c5aa="" id="e808ee06-515a-4ddf-a456-ff1cd0edd96e" stroke="none" fill="url(#37b6a0a8-82f0-4c4a-9d14-888fe43fed8d)" transform="matrix(0.5642431016133436,0,0,0.5642431016133436,34.47944580806787,122.74023788335205)"><path d="M50 12.6l30.927 17.856v35.712L50 84.024 19.073 66.168V30.456L50 12.6m0-9.288a9.296 9.296 0 0 0-4.645 1.244L14.429 22.412a9.296 9.296 0 0 0-4.645 8.044v35.712a9.291 9.291 0 0 0 4.645 8.044l30.927 17.856a9.293 9.293 0 0 0 9.29 0l30.927-17.856a9.296 9.296 0 0 0 4.645-8.044V30.456a9.291 9.291 0 0 0-4.645-8.044L54.645 4.556A9.296 9.296 0 0 0 50 3.312z"></path></g><!----></svg>