<svg data-v-fde0c5aa="" xmlns="http://www.w3.org/2000/svg" viewBox="0 0 300 300" class="icon"><!----><defs data-v-fde0c5aa=""><!----></defs><rect data-v-fde0c5aa="" fill="#FFFFFF" x="0" y="0" width="300px" height="300px" class="logo-background-square"></rect><!----><defs data-v-fde0c5aa=""><linearGradient data-v-fde0c5aa="" gradientTransform="rotate(25)" id="821fe526-8d70-424d-bd44-90d5cc2f647d" x1="0%" y1="0%" x2="100%" y2="0%"><stop data-v-fde0c5aa="" offset="0%" stop-color="#E41748" stop-opacity="1"></stop><stop data-v-fde0c5aa="" offset="100%" stop-color="#1A35EA" stop-opacity="1"></stop></linearGradient></defs><g data-v-fde0c5aa="" id="a6887d92-12b6-4a56-ab42-9e44550e3a30" fill="url(#821fe526-8d70-424d-bd44-90d5cc2f647d)" stroke="none" transform="matrix(2.4444396784369062,0,0,2.4444396784369062,27.7755566628517,31.90401627923123)"><path d="M50 12.6l30.927 17.856v35.712L50 84.024 19.073 66.168V30.456L50 12.6m0-9.288a9.296 9.296 0 0 0-4.645 1.244L14.429 22.412a9.296 9.296 0 0 0-4.645 8.044v35.712a9.291 9.291 0 0 0 4.645 8.044l30.927 17.856a9.293 9.293 0 0 0 9.29 0l30.927-17.856a9.296 9.296 0 0 0 4.645-8.044V30.456a9.291 9.291 0 0 0-4.645-8.044L54.645 4.556A9.296 9.296 0 0 0 50 3.312z"></path></g><!----></svg>