<svg data-v-423bf9ae="" xmlns="http://www.w3.org/2000/svg" viewBox="0 0 254.30814628745557 163" class="iconAbove"><!----><!----><!----><g data-v-423bf9ae="" id="af214072-faa5-4cf3-90df-9bc4a03aa084" fill="#1A35EA" transform="matrix(5.888125304749934,0,0,5.888125304749934,-5.947006168580316,100.35034562353954)"><path d="M1.01 10.50L2.06 10.50L2.06 3.50L1.01 3.50ZM1.01 1.92L2.06 1.92L2.06 0.70L1.01 0.70ZM9.45 0.45L8.41 0.45L8.41 3.54C8.20 3.50 7.29 3.36 6.69 3.36C4.56 3.36 3.77 4.59 3.77 7.06C3.77 10.08 4.91 10.64 6.29 10.64C7.34 10.64 8.41 10.02 8.41 10.02L8.41 10.50L9.45 10.50ZM6.41 9.70C5.59 9.70 4.84 9.32 4.84 7.06C4.84 5.24 5.28 4.27 6.75 4.27C7.32 4.27 8.19 4.40 8.41 4.44L8.41 9.18C8.41 9.18 7.41 9.70 6.41 9.70ZM16.16 3.63C16.16 3.63 14.67 3.36 13.62 3.36C12.35 3.36 11.10 3.86 11.10 5.40C11.10 6.80 11.86 7.10 13.44 7.35C14.97 7.59 15.33 7.77 15.33 8.50C15.33 9.45 14.71 9.70 13.57 9.70C12.85 9.70 11.26 9.46 11.26 9.46L11.20 10.37C11.20 10.37 12.77 10.64 13.66 10.64C15.34 10.64 16.38 10.09 16.38 8.46C16.38 7.10 15.72 6.75 13.97 6.45C12.49 6.20 12.15 6.02 12.15 5.36C12.15 4.54 12.81 4.30 13.68 4.30C14.57 4.30 16.13 4.52 16.13 4.52ZM20.61 3.36C18.52 3.36 17.70 4.34 17.70 6.87C17.70 9.62 18.35 10.64 20.58 10.64C21.22 10.64 22.53 10.44 22.53 10.44L22.48 9.58C22.48 9.58 21.36 9.70 20.83 9.70C19.10 9.70 18.77 8.95 18.77 6.87C18.77 5.00 19.21 4.30 20.82 4.30C21.35 4.30 22.47 4.42 22.47 4.42L22.51 3.57C22.51 3.57 21.25 3.36 20.61 3.36ZM29.04 5.61C29.04 4.09 28.36 3.36 26.78 3.36C25.58 3.36 24.04 3.67 24.04 3.67L24.08 4.47C24.08 4.47 25.75 4.28 26.73 4.28C27.57 4.28 27.99 4.63 27.99 5.61L27.99 6.22L25.79 6.43C24.35 6.57 23.65 7.15 23.65 8.50C23.65 9.91 24.35 10.64 25.62 10.64C26.88 10.64 28.14 10.08 28.14 10.08C28.56 10.50 29.06 10.64 29.81 10.64L29.85 9.81C29.40 9.76 29.06 9.60 29.04 9.20ZM27.99 7.01L27.99 9.32C27.99 9.32 26.82 9.76 25.79 9.76C25.07 9.76 24.72 9.28 24.72 8.47C24.72 7.70 25.06 7.29 25.91 7.21ZM32.16 10.50L32.16 4.82C32.16 4.82 33.12 4.30 34.13 4.30C35.43 4.30 35.64 4.98 35.64 6.83L35.64 10.50L36.68 10.50L36.68 6.80C36.68 4.31 36.25 3.36 34.31 3.36C33.28 3.36 32.14 3.99 32.14 3.99L32.14 3.50L31.11 3.50L31.11 10.50ZM39.68 10.50L39.68 4.82C39.68 4.82 40.64 4.30 41.65 4.30C42.95 4.30 43.16 4.98 43.16 6.83L43.16 10.50L44.20 10.50L44.20 6.80C44.20 4.31 43.76 3.36 41.83 3.36C40.80 3.36 39.66 3.99 39.66 3.99L39.66 3.50L38.63 3.50L38.63 10.50Z"></path></g><defs data-v-423bf9ae=""><linearGradient data-v-423bf9ae="" gradientTransform="rotate(25)" id="3b811664-47ca-4426-ac2d-f84441c6b34a" x1="0%" y1="0%" x2="100%" y2="0%"><stop data-v-423bf9ae="" offset="0%" style="stop-color: rgb(26, 53, 234); stop-opacity: 1;"></stop><stop data-v-423bf9ae="" offset="100%" style="stop-color: rgb(228, 23, 72); stop-opacity: 1;"></stop></linearGradient></defs><g data-v-423bf9ae="" id="a4d9187e-4668-484e-aae3-a6e331879cb0" transform="matrix(2.8125,0,0,2.8125,83,0)" stroke="none" fill="url(#3b811664-47ca-4426-ac2d-f84441c6b34a)"><g data-name="16-scan"><path d="M31 17H1a1 1 0 0 1 0-2h30a1 1 0 0 1 0 2zM1 12a1 1 0 0 1-1-1V1a1 1 0 0 1 1-1h10a1 1 0 0 1 0 2H2v9a1 1 0 0 1-1 1zM31 12a1 1 0 0 1-1-1V2h-9a1 1 0 0 1 0-2h10a1 1 0 0 1 1 1v10a1 1 0 0 1-1 1zM31 32H21a1 1 0 0 1 0-2h9v-9a1 1 0 0 1 2 0v10a1 1 0 0 1-1 1zM11 32H1a1 1 0 0 1-1-1V21a1 1 0 0 1 2 0v9h9a1 1 0 0 1 0 2z"></path></g></g><!----></svg>