<svg data-v-423bf9ae="" xmlns="http://www.w3.org/2000/svg" viewBox="0 0 60 60" class="icon"><!----><!----><!----><!----><g data-v-423bf9ae="" id="1a368ca6-d0f8-4010-96b2-a671c71c6b42" transform="matrix(1.875,0,0,1.875,0,0)" stroke="none" fill="black"><g data-name="16-scan"><path d="M31 17H1a1 1 0 0 1 0-2h30a1 1 0 0 1 0 2zM1 12a1 1 0 0 1-1-1V1a1 1 0 0 1 1-1h10a1 1 0 0 1 0 2H2v9a1 1 0 0 1-1 1zM31 12a1 1 0 0 1-1-1V2h-9a1 1 0 0 1 0-2h10a1 1 0 0 1 1 1v10a1 1 0 0 1-1 1zM31 32H21a1 1 0 0 1 0-2h9v-9a1 1 0 0 1 2 0v10a1 1 0 0 1-1 1zM11 32H1a1 1 0 0 1-1-1V21a1 1 0 0 1 2 0v9h9a1 1 0 0 1 0 2z"></path></g></g><!----></svg>