<svg data-v-423bf9ae="" xmlns="http://www.w3.org/2000/svg" viewBox="0 0 413 105" class="iconLeft"><!----><!----><!----><g data-v-423bf9ae="" id="16e1d012-73da-4bc3-86d3-80e187f746a4" fill="white" transform="matrix(5.829222202301025,0,0,5.829222202301025,117.81515502929688,-2.814140796661377)"><path d="M2.56 4.33L2.56 14.52L1.18 14.52L1.18 4.33L2.56 4.33ZM12.44 8.53L12.44 8.53L12.44 8.53Q12.44 9.47 12.43 10.07L12.43 10.07L12.43 10.07Q12.42 10.68 12.37 11.31L12.37 11.31L12.37 11.31Q12.31 11.94 12.25 12.31L12.25 12.31L12.25 12.31Q12.19 12.68 12.02 13.07L12.02 13.07L12.02 13.07Q11.85 13.45 11.69 13.64L11.69 13.64L11.69 13.64Q11.53 13.83 11.20 14.03L11.20 14.03L11.20 14.03Q10.88 14.23 10.56 14.29L10.56 14.29L10.56 14.29Q10.25 14.36 9.71 14.43L9.71 14.43L9.71 14.43Q9.17 14.50 8.66 14.51L8.66 14.51L8.66 14.51Q8.14 14.52 7.35 14.52L7.35 14.52L4.87 14.52L4.87 4.33L8.40 4.33L8.40 4.33Q9.26 4.33 9.86 4.41L9.86 4.41L9.86 4.41Q10.45 4.48 10.92 4.67L10.92 4.67L10.92 4.67Q11.39 4.87 11.67 5.16L11.67 5.16L11.67 5.16Q11.95 5.46 12.13 5.94L12.13 5.94L12.13 5.94Q12.31 6.43 12.38 7.04L12.38 7.04L12.38 7.04Q12.44 7.65 12.44 8.53ZM11.07 10.28L11.07 8.55L11.07 8.55Q11.07 7.92 11.06 7.65L11.06 7.65L11.06 7.65Q11.06 7.37 11.02 6.95L11.02 6.95L11.02 6.95Q10.97 6.54 10.89 6.38L10.89 6.38L10.89 6.38Q10.81 6.23 10.64 5.99L10.64 5.99L10.64 5.99Q10.47 5.75 10.24 5.68L10.24 5.68L10.24 5.68Q10.01 5.62 9.64 5.52L9.64 5.52L9.64 5.52Q9.27 5.42 8.81 5.40L8.81 5.40L8.81 5.40Q8.35 5.39 7.70 5.39L7.70 5.39L6.26 5.39L6.26 13.47L7.90 13.47L7.90 13.47Q8.49 13.47 8.82 13.46L8.82 13.46L8.82 13.46Q9.15 13.45 9.53 13.41L9.53 13.41L9.53 13.41Q9.91 13.36 10.09 13.28L10.09 13.28L10.09 13.28Q10.27 13.20 10.49 13.03L10.49 13.03L10.49 13.03Q10.70 12.87 10.78 12.65L10.78 12.65L10.78 12.65Q10.86 12.43 10.94 12.08L10.94 12.08L10.94 12.08Q11.03 11.73 11.05 11.31L11.05 11.31L11.05 11.31Q11.07 10.88 11.07 10.28L11.07 10.28ZM19.82 12.44L19.82 12.44L19.82 12.44Q19.82 13.10 19.67 13.52L19.67 13.52L19.67 13.52Q19.53 13.94 19.20 14.18L19.20 14.18L19.20 14.18Q18.87 14.43 18.39 14.53L18.39 14.53L18.39 14.53Q17.92 14.62 17.19 14.62L17.19 14.62L17.19 14.62Q16.77 14.62 16.51 14.62L16.51 14.62L16.51 14.62Q16.26 14.61 15.92 14.58L15.92 14.58L15.92 14.58Q15.59 14.55 15.39 14.50L15.39 14.50L15.39 14.50Q15.19 14.44 14.96 14.34L14.96 14.34L14.96 14.34Q14.73 14.24 14.60 14.09L14.60 14.09L14.60 14.09Q14.47 13.93 14.36 13.72L14.36 13.72L14.36 13.72Q14.24 13.51 14.19 13.22L14.19 13.22L14.19 13.22Q14.14 12.93 14.14 12.56L14.14 12.56L15.20 12.28L15.20 12.28Q15.26 13.06 15.35 13.27L15.35 13.27L15.35 13.27Q15.47 13.55 15.86 13.62L15.86 13.62L15.86 13.62Q16.15 13.69 17.10 13.69L17.10 13.69L17.10 13.69Q17.66 13.69 17.94 13.63L17.94 13.63L17.94 13.63Q18.22 13.58 18.31 13.44L18.31 13.44L18.31 13.44Q18.59 13.21 18.59 11.90L18.59 11.90L18.59 11.90Q18.59 11.70 18.50 11.56L18.50 11.56L18.50 11.56Q18.42 11.42 18.31 11.35L18.31 11.35L18.31 11.35Q18.19 11.28 17.98 11.23L17.98 11.23L17.98 11.23Q17.77 11.18 17.61 11.16L17.61 11.16L17.61 11.16Q17.44 11.14 17.17 11.12L17.17 11.12L17.17 11.12Q16.89 11.09 16.73 11.07L16.73 11.07L16.73 11.07Q16.23 11.01 15.91 10.96L15.91 10.96L15.91 10.96Q15.60 10.91 15.28 10.81L15.28 10.81L15.28 10.81Q14.96 10.71 14.78 10.55L14.78 10.55L14.78 10.55Q14.59 10.40 14.44 10.17L14.44 10.17L14.44 10.17Q14.29 9.93 14.23 9.59L14.23 9.59L14.23 9.59Q14.17 9.26 14.17 8.79L14.17 8.79L14.17 8.79Q14.17 8.30 14.27 7.96L14.27 7.96L14.27 7.96Q14.38 7.62 14.57 7.39L14.57 7.39L14.57 7.39Q14.77 7.16 15.12 7.04L15.12 7.04L15.12 7.04Q15.46 6.91 15.89 6.86L15.89 6.86L15.89 6.86Q16.32 6.81 16.95 6.81L16.95 6.81L16.95 6.81Q17.34 6.81 17.59 6.82L17.59 6.82L17.59 6.82Q17.83 6.83 18.13 6.87L18.13 6.87L18.13 6.87Q18.43 6.90 18.61 6.97L18.61 6.97L18.61 6.97Q18.80 7.04 18.99 7.16L18.99 7.16L18.99 7.16Q19.17 7.29 19.28 7.47L19.28 7.47L19.28 7.47Q19.38 7.65 19.44 7.91L19.44 7.91L19.44 7.91Q19.51 8.17 19.51 8.50L19.51 8.50L18.59 8.78L18.59 8.78Q18.57 8.52 18.54 8.36L18.54 8.36L18.54 8.36Q18.52 8.21 18.44 8.08L18.44 8.08L18.44 8.08Q18.35 7.95 18.27 7.90L18.27 7.90L18.27 7.90Q18.18 7.84 17.96 7.80L17.96 7.80L17.96 7.80Q17.75 7.76 17.53 7.75L17.53 7.75L17.53 7.75Q17.31 7.75 16.90 7.75L16.90 7.75L16.90 7.75Q16.02 7.75 15.71 7.92L15.71 7.92L15.71 7.92Q15.40 8.09 15.40 8.49L15.40 8.49L15.40 9.19L15.40 9.19Q15.40 9.64 15.67 9.76L15.67 9.76L15.67 9.76Q15.94 9.88 17.12 10.03L17.12 10.03L17.12 10.03Q17.24 10.05 17.30 10.06L17.30 10.06L17.30 10.06Q17.77 10.11 18.05 10.16L18.05 10.16L18.05 10.16Q18.33 10.21 18.63 10.28L18.63 10.28L18.63 10.28Q18.94 10.36 19.10 10.47L19.10 10.47L19.10 10.47Q19.26 10.58 19.42 10.74L19.42 10.74L19.42 10.74Q19.58 10.90 19.66 11.14L19.66 11.14L19.66 11.14Q19.73 11.38 19.77 11.70L19.77 11.70L19.77 11.70Q19.82 12.01 19.82 12.44ZM27.19 9.18L27.19 9.18L26.08 9.37L25.94 8.42L25.94 8.42Q25.88 8.09 25.81 8.00L25.81 8.00L25.81 8.00Q25.63 7.79 24.82 7.77L24.82 7.77L24.82 7.77Q24.63 7.76 24.40 7.76L24.40 7.76L24.40 7.76Q23.47 7.76 23.18 7.86L23.18 7.86L23.18 7.86Q22.87 7.92 22.72 8.48L22.72 8.48L22.72 8.48Q22.58 9.05 22.58 9.87L22.58 9.87L22.59 11.05L22.59 11.05Q22.59 11.30 22.59 11.73L22.59 11.73L22.59 11.73Q22.59 12.29 22.59 12.52L22.59 12.52L22.59 12.52Q22.59 12.75 22.65 13.04L22.65 13.04L22.65 13.04Q22.71 13.33 22.79 13.40L22.79 13.40L22.79 13.40Q22.87 13.47 23.08 13.57L23.08 13.57L23.08 13.57Q23.30 13.67 23.55 13.67L23.55 13.67L23.55 13.67Q23.80 13.68 24.27 13.68L24.27 13.68L24.27 13.68Q24.64 13.68 24.91 13.65L24.91 13.65L24.91 13.65Q25.18 13.62 25.37 13.59L25.37 13.59L25.37 13.59Q25.56 13.55 25.68 13.46L25.68 13.46L25.68 13.46Q25.80 13.36 25.86 13.29L25.86 13.29L25.86 13.29Q25.93 13.21 25.96 13.05L25.96 13.05L25.96 13.05Q26.00 12.89 26.01 12.78L26.01 12.78L26.01 12.78Q26.02 12.66 26.03 12.42L26.03 12.42L26.03 12.42Q26.04 12.19 26.07 12.02L26.07 12.02L27.19 12.22L27.19 12.22Q27.15 12.75 27.09 13.07L27.09 13.07L27.09 13.07Q27.04 13.39 26.92 13.69L26.92 13.69L26.92 13.69Q26.80 13.99 26.62 14.15L26.62 14.15L26.62 14.15Q26.44 14.30 26.12 14.42L26.12 14.42L26.12 14.42Q25.81 14.55 25.39 14.58L25.39 14.58L25.39 14.58Q24.96 14.62 24.34 14.62L24.34 14.62L24.34 14.62Q23.88 14.62 23.53 14.59L23.53 14.59L23.53 14.59Q23.17 14.57 22.87 14.48L22.87 14.48L22.87 14.48Q22.58 14.40 22.36 14.32L22.36 14.32L22.36 14.32Q22.14 14.24 21.97 14.04L21.97 14.04L21.97 14.04Q21.81 13.84 21.69 13.70L21.69 13.70L21.69 13.70Q21.58 13.56 21.51 13.23L21.51 13.23L21.51 13.23Q21.43 12.91 21.39 12.69L21.39 12.69L21.39 12.69Q21.35 12.46 21.33 12.00L21.33 12.00L21.33 12.00Q21.31 11.54 21.30 11.22L21.30 11.22L21.30 11.22Q21.30 10.90 21.30 10.29L21.30 10.29L21.30 10.29Q21.30 9.74 21.32 9.34L21.32 9.34L21.32 9.34Q21.34 8.94 21.40 8.58L21.40 8.58L21.40 8.58Q21.46 8.21 21.56 7.97L21.56 7.97L21.56 7.97Q21.66 7.72 21.83 7.51L21.83 7.51L21.83 7.51Q22.00 7.30 22.21 7.18L22.21 7.18L22.21 7.18Q22.43 7.05 22.75 6.97L22.75 6.97L22.75 6.97Q23.06 6.88 23.44 6.84L23.44 6.84L23.44 6.84Q23.82 6.81 24.33 6.81L24.33 6.81L24.33 6.81Q24.98 6.81 25.42 6.87L25.42 6.87L25.42 6.87Q25.86 6.94 26.20 7.09L26.20 7.09L26.20 7.09Q26.54 7.24 26.74 7.52L26.74 7.52L26.74 7.52Q26.94 7.79 27.05 8.19L27.05 8.19L27.05 8.19Q27.16 8.59 27.19 9.18ZM34.49 9.56L34.49 14.52L33.42 14.52L33.20 13.45L33.20 13.45Q33.00 14.15 32.46 14.39L32.46 14.39L32.46 14.39Q31.92 14.62 30.89 14.62L30.89 14.62L30.89 14.62Q30.21 14.62 29.77 14.49L29.77 14.49L29.77 14.49Q29.33 14.36 29.07 14.04L29.07 14.04L29.07 14.04Q28.81 13.73 28.71 13.27L28.71 13.27L28.71 13.27Q28.62 12.82 28.62 12.10L28.62 12.10L28.62 12.10Q28.62 11.78 28.73 11.53L28.73 11.53L28.73 11.53Q28.84 11.27 29.04 11.09L29.04 11.09L29.04 11.09Q29.23 10.92 29.56 10.79L29.56 10.79L29.56 10.79Q29.88 10.66 30.23 10.58L30.23 10.58L30.23 10.58Q30.58 10.51 31.07 10.46L31.07 10.46L31.07 10.46Q31.57 10.42 32.04 10.40L32.04 10.40L32.04 10.40Q32.51 10.39 33.14 10.39L33.14 10.39L33.14 8.36L33.14 8.36Q33.14 8.01 32.81 7.88L32.81 7.88L32.81 7.88Q32.48 7.75 31.64 7.75L31.64 7.75L31.64 7.75Q31.06 7.75 30.76 7.77L30.76 7.77L30.76 7.77Q30.47 7.80 30.31 7.93L30.31 7.93L30.31 7.93Q30.16 8.07 30.14 8.20L30.14 8.20L30.14 8.20Q30.11 8.33 30.11 8.68L30.11 8.68L30.11 8.68Q30.10 8.81 30.10 8.89L30.10 8.89L29.05 8.85L29.05 8.85Q29.04 8.74 29.04 8.52L29.04 8.52L29.04 8.52Q29.04 8.07 29.17 7.75L29.17 7.75L29.17 7.75Q29.31 7.43 29.52 7.25L29.52 7.25L29.52 7.25Q29.73 7.07 30.10 6.97L30.10 6.97L30.10 6.97Q30.47 6.86 30.83 6.84L30.83 6.84L30.83 6.84Q31.19 6.81 31.73 6.81L31.73 6.81L31.73 6.81Q32.55 6.81 33.07 6.94L33.07 6.94L33.07 6.94Q33.58 7.06 33.91 7.39L33.91 7.39L33.91 7.39Q34.23 7.72 34.36 8.23L34.36 8.23L34.36 8.23Q34.49 8.74 34.49 9.56L34.49 9.56ZM33.14 12.37L33.14 12.37L33.14 11.20L33.14 11.20Q31.79 11.20 31.07 11.31L31.07 11.31L31.07 11.31Q30.34 11.41 30.10 11.59L30.10 11.59L30.10 11.59Q29.86 11.77 29.86 12.10L29.86 12.10L29.86 12.10Q29.86 12.11 29.86 12.14L29.86 12.14L29.86 12.14Q29.86 13.18 30.03 13.43L30.03 13.43L30.03 13.43Q30.20 13.69 31.08 13.69L31.08 13.69L31.08 13.69Q31.82 13.69 32.29 13.51L32.29 13.51L32.29 13.51Q32.75 13.33 32.93 13.05L32.93 13.05L32.93 13.05Q33.11 12.78 33.14 12.37ZM42.49 10.36L42.49 14.52L41.15 14.52L41.15 9.98L41.15 9.98Q41.15 9.54 41.14 9.28L41.14 9.28L41.14 9.28Q41.14 9.02 41.11 8.75L41.11 8.75L41.11 8.75Q41.09 8.48 41.06 8.35L41.06 8.35L41.06 8.35Q41.04 8.22 40.96 8.08L40.96 8.08L40.96 8.08Q40.89 7.95 40.82 7.90L40.82 7.90L40.82 7.90Q40.74 7.85 40.60 7.81L40.60 7.81L40.60 7.81Q40.46 7.77 40.31 7.76L40.31 7.76L40.31 7.76Q40.17 7.75 39.93 7.75L39.93 7.75L39.93 7.75Q39.41 7.75 39.04 7.81L39.04 7.81L39.04 7.81Q38.68 7.87 38.45 7.97L38.45 7.97L38.45 7.97Q38.21 8.07 38.09 8.26L38.09 8.26L38.09 8.26Q37.96 8.44 37.91 8.66L37.91 8.66L37.91 8.66Q37.86 8.87 37.86 9.19L37.86 9.19L37.86 9.19Q37.86 9.37 37.88 9.81L37.88 9.81L37.88 9.81Q37.91 10.25 37.91 10.52L37.91 10.52L37.91 14.52L36.56 14.52L36.56 7.02L37.79 7.02L37.92 7.86L37.92 7.86Q38.10 7.30 38.71 7.05L38.71 7.05L38.71 7.05Q39.31 6.81 40.15 6.81L40.15 6.81L40.15 6.81Q40.55 6.81 40.86 6.86L40.86 6.86L40.86 6.86Q41.17 6.90 41.41 7.02L41.41 7.02L41.41 7.02Q41.64 7.13 41.82 7.27L41.82 7.27L41.82 7.27Q41.99 7.42 42.11 7.65L42.11 7.65L42.11 7.65Q42.23 7.89 42.31 8.13L42.31 8.13L42.31 8.13Q42.38 8.38 42.42 8.75L42.42 8.75L42.42 8.75Q42.46 9.12 42.48 9.48L42.48 9.48L42.48 9.48Q42.49 9.85 42.49 10.36L42.49 10.36ZM50.50 10.36L50.50 14.52L49.15 14.52L49.15 9.98L49.15 9.98Q49.15 9.54 49.15 9.28L49.15 9.28L49.15 9.28Q49.14 9.02 49.12 8.75L49.12 8.75L49.12 8.75Q49.10 8.48 49.07 8.35L49.07 8.35L49.07 8.35Q49.04 8.22 48.97 8.08L48.97 8.08L48.97 8.08Q48.90 7.95 48.82 7.90L48.82 7.90L48.82 7.90Q48.75 7.85 48.60 7.81L48.60 7.81L48.60 7.81Q48.46 7.77 48.32 7.76L48.32 7.76L48.32 7.76Q48.17 7.75 47.93 7.75L47.93 7.75L47.93 7.75Q47.41 7.75 47.05 7.81L47.05 7.81L47.05 7.81Q46.68 7.87 46.45 7.97L46.45 7.97L46.45 7.97Q46.22 8.07 46.09 8.26L46.09 8.26L46.09 8.26Q45.96 8.44 45.92 8.66L45.92 8.66L45.92 8.66Q45.87 8.87 45.87 9.19L45.87 9.19L45.87 9.19Q45.87 9.37 45.89 9.81L45.89 9.81L45.89 9.81Q45.91 10.25 45.91 10.52L45.91 10.52L45.91 14.52L44.56 14.52L44.56 7.02L45.79 7.02L45.92 7.86L45.92 7.86Q46.10 7.30 46.71 7.05L46.71 7.05L46.71 7.05Q47.32 6.81 48.16 6.81L48.16 6.81L48.16 6.81Q48.56 6.81 48.86 6.86L48.86 6.86L48.86 6.86Q49.17 6.90 49.41 7.02L49.41 7.02L49.41 7.02Q49.65 7.13 49.82 7.27L49.82 7.27L49.82 7.27Q50.00 7.42 50.12 7.65L50.12 7.65L50.12 7.65Q50.24 7.89 50.31 8.13L50.31 8.13L50.31 8.13Q50.39 8.38 50.43 8.75L50.43 8.75L50.43 8.75Q50.47 9.12 50.48 9.48L50.48 9.48L50.48 9.48Q50.50 9.85 50.50 10.36L50.50 10.36Z"></path></g><!----><g data-v-423bf9ae="" id="fc9b1869-8ae2-499d-aff6-879c16ccf454" transform="matrix(1.0792534351348877,0,0,1.0792534351348877,-1.4845930337905884,-0.5145275592803955)" stroke="none" fill="white"><path d="M69.184 40.862a2.957 2.957 0 0 0 5.914 0c0-8.814-7.145-15.958-15.958-15.958-1.634 0-2.956 1.324-2.956 2.957s1.322 2.957 2.956 2.957c5.548-.001 10.044 4.496 10.044 10.044zM59.14 1.25a2.956 2.956 0 0 0-2.956 2.957 2.956 2.956 0 0 0 2.956 2.957c18.61 0 33.698 15.086 33.698 33.698a2.956 2.956 0 1 0 5.914 0c0-21.877-17.736-39.612-39.612-39.612z"></path><path d="M79.862 53.33a2.957 2.957 0 0 0-2.957 2.958v24.356c0 6.531-5.295 11.826-11.827 11.826H19.491c-6.532 0-11.827-5.295-11.827-11.826V35.057c0-6.532 5.295-11.827 11.827-11.827h24.176a2.957 2.957 0 0 0 0-5.915H19.491c-9.797 0-17.74 7.943-17.74 17.741v45.587c0 9.798 7.943 17.74 17.74 17.74h45.587c9.798 0 17.741-7.942 17.741-17.74V56.287a2.958 2.958 0 0 0-2.957-2.957z"></path><circle cx="59.14" cy="40.862" r="4.131"></circle><path d="M59.14 13.077c-1.634 0-2.956 1.324-2.956 2.957s1.322 2.957 2.956 2.957c12.079 0 21.871 9.792 21.871 21.872a2.957 2.957 0 0 0 5.914 0c0-15.346-12.441-27.786-27.785-27.786zM32.099 51.648v12.404a3.989 3.989 0 0 0 3.983 3.984h12.405a3.99 3.99 0 0 0 3.984-3.984v-3.245h13.634v5.758L51 81.67H18.464V56.492 34.031h25.204a2.957 2.957 0 0 0 0-5.914H18.464a5.913 5.913 0 0 0-5.913 5.914V81.67a5.913 5.913 0 0 0 5.913 5.914H51c1.729 0 2.958-.509 4.181-1.731l15.105-15.106c1.224-1.223 1.732-2.451 1.732-4.181v-5.758a5.914 5.914 0 0 0-5.914-5.914H52.47v-3.245a3.989 3.989 0 0 0-3.984-3.983H36.082a3.986 3.986 0 0 0-3.983 3.982z"></path></g><!----></svg>