<svg data-v-fde0c5aa="" xmlns="http://www.w3.org/2000/svg" viewBox="0 0 300 300" class="icon"><!----><defs data-v-fde0c5aa=""><!----></defs><rect data-v-fde0c5aa="" fill="#8D000F" x="0" y="0" width="300px" height="300px" class="logo-background-square"></rect><!----><defs data-v-fde0c5aa=""><!----></defs><g data-v-fde0c5aa="" id="6621a2ab-acbb-40a2-b05a-5c84bd264e23" fill="#F6318E" stroke="none" transform="matrix(6.875,0,0,6.875,40,40)"><g data-name="16-scan"><path d="M31 17H1a1 1 0 0 1 0-2h30a1 1 0 0 1 0 2zM1 12a1 1 0 0 1-1-1V1a1 1 0 0 1 1-1h10a1 1 0 0 1 0 2H2v9a1 1 0 0 1-1 1zM31 12a1 1 0 0 1-1-1V2h-9a1 1 0 0 1 0-2h10a1 1 0 0 1 1 1v10a1 1 0 0 1-1 1zM31 32H21a1 1 0 0 1 0-2h9v-9a1 1 0 0 1 2 0v10a1 1 0 0 1-1 1zM11 32H1a1 1 0 0 1-1-1V21a1 1 0 0 1 2 0v9h9a1 1 0 0 1 0 2z"></path></g></g><!----></svg>