<svg data-v-423bf9ae="" xmlns="http://www.w3.org/2000/svg" viewBox="0 0 53.62257102804111 60" class="icon"><!----><!----><!----><!----><g data-v-423bf9ae="" id="47ce7760-6942-4925-a9b7-faac5e3c1c78" transform="matrix(0.666665366846429,0,0,0.666665366846429,-6.522653119354324,-2.2079960370468257)" stroke="none" fill="white"><path d="M50 12.6l30.927 17.856v35.712L50 84.024 19.073 66.168V30.456L50 12.6m0-9.288a9.296 9.296 0 0 0-4.645 1.244L14.429 22.412a9.296 9.296 0 0 0-4.645 8.044v35.712a9.291 9.291 0 0 0 4.645 8.044l30.927 17.856a9.293 9.293 0 0 0 9.29 0l30.927-17.856a9.296 9.296 0 0 0 4.645-8.044V30.456a9.291 9.291 0 0 0-4.645-8.044L54.645 4.556A9.296 9.296 0 0 0 50 3.312z"></path></g><!----></svg>